<?xml version="1.0" standalone="no"?>
<!DOCTYPE svg PUBLIC "-//W3C//DTD SVG 20010904//EN"
 "http://www.w3.org/TR/2001/REC-SVG-20010904/DTD/svg10.dtd">
<svg version="1.0" xmlns="http://www.w3.org/2000/svg"
 width="102.000000pt" height="163.000000pt" viewBox="0 0 102.000000 163.000000"
 preserveAspectRatio="xMidYMid meet">

<g transform="translate(0.000000,163.000000) scale(0.100000,-0.100000)"
fill="#000000" stroke="none">
<path d="M455 1533 c-33 -20 -132 -75 -220 -123 -142 -75 -160 -88 -163 -113
-2 -19 1 -27 13 -27 9 0 27 -11 40 -25 l25 -24 0 -538 0 -539 63 -62 62 -62
93 93 92 93 -40 39 -40 39 0 123 c0 126 9 152 31 86 20 -66 101 -235 150 -319
49 -82 97 -134 126 -134 29 0 194 93 241 136 l47 43 -48 1 c-125 1 -217 98
-307 326 -17 42 -29 78 -28 79 2 2 38 17 80 35 129 53 128 51 128 189 0 151
-15 197 -86 268 -46 47 -58 53 -94 53 -43 0 -93 -21 -176 -76 -28 -19 -55 -34
-59 -34 -4 0 -6 57 -3 128 4 106 8 134 27 170 27 54 95 128 134 149 l29 15
-23 24 c-12 13 -25 24 -28 24 -3 -1 -33 -17 -66 -37z m67 -570 c41 -44 48 -67
48 -152 0 -73 -2 -82 -23 -96 -25 -16 -145 -65 -159 -65 -12 0 -10 298 2 321
8 15 21 19 58 19 40 0 53 -5 74 -27z"/>
</g>
</svg>
