<?xml version="1.0" encoding="UTF-8"?>
<!DOCTYPE svg PUBLIC "-//W3C//DTD SVG 1.1//EN" "http://www.w3.org/Graphics/SVG/1.1/DTD/svg11.dtd">
<svg xmlns="http://www.w3.org/2000/svg" version="1.1" width="53px" height="143px" style="shape-rendering:geometricPrecision; text-rendering:geometricPrecision; image-rendering:optimizeQuality; fill-rule:evenodd; clip-rule:evenodd" xmlns:xlink="http://www.w3.org/1999/xlink">
<g><path style="opacity:0.946" fill="#fefefe" d="M 37.5,128.5 C 32.8636,132.158 28.1969,135.825 23.5,139.5C 18.3027,135.137 13.636,130.303 9.5,125C 11.1173,98.4851 12.7839,71.9851 14.5,45.5C 10.2044,44.6725 5.8711,44.1725 1.5,44C 4.16667,41.3333 6.83333,38.6667 9.5,36C 11.1341,35.5065 12.8008,35.3398 14.5,35.5C 14.4502,30.4482 14.9502,25.4482 16,20.5C 22.2171,14.3153 28.7171,8.48192 35.5,3C 36.448,2.51722 37.448,2.35055 38.5,2.5C 38.0558,13.4959 37.7225,24.4959 37.5,35.5C 41.8461,35.3343 46.1794,35.501 50.5,36C 47.8333,38.6667 45.1667,41.3333 42.5,44C 40.5273,44.4955 38.5273,44.6621 36.5,44.5C 35.1232,67.156 34.2899,89.8227 34,112.5C 36.6458,115.98 39.4791,119.314 42.5,122.5C 40.8103,124.519 39.1436,126.519 37.5,128.5 Z"/></g>
<g><path style="opacity:0.012" fill="#000000" d="M 28.5,6.5 C 28.8966,5.47498 29.5632,5.30831 30.5,6C 29.9056,6.46434 29.2389,6.63101 28.5,6.5 Z"/></g>
<g><path style="opacity:0.004" fill="#000000" d="M 35.5,83.5 C 37.337,83.6395 37.6704,84.3061 36.5,85.5C 35.7025,85.0431 35.3691,84.3764 35.5,83.5 Z"/></g>
<g><path style="opacity:0.008" fill="#000000" d="M 41.5,128.5 C 41.8966,127.475 42.5632,127.308 43.5,128C 42.9056,128.464 42.2389,128.631 41.5,128.5 Z"/></g>
<g><path style="opacity:0.004" fill="#000000" d="M 37.5,128.5 C 38.2891,128.783 38.9558,129.283 39.5,130C 38.184,130.528 37.5173,130.028 37.5,128.5 Z"/></g>
</svg>
