<?xml version="1.0" encoding="UTF-8"?>
<!DOCTYPE svg PUBLIC "-//W3C//DTD SVG 1.1//EN" "http://www.w3.org/Graphics/SVG/1.1/DTD/svg11.dtd">
<svg xmlns="http://www.w3.org/2000/svg" version="1.1" width="176px" height="255px" style="shape-rendering:geometricPrecision; text-rendering:geometricPrecision; image-rendering:optimizeQuality; fill-rule:evenodd; clip-rule:evenodd" xmlns:xlink="http://www.w3.org/1999/xlink">
<g><path style="opacity:0.982" fill="#fefffe" d="M 141.5,2.5 C 149.632,10.1309 157.632,17.9642 165.5,26C 160.427,31.7439 154.76,36.7439 148.5,41C 136.661,42.1138 124.828,42.9471 113,43.5C 110.254,97.9903 107.754,152.324 105.5,206.5C 108.912,211.419 112.912,215.919 117.5,220C 113.388,224.888 108.388,228.555 102.5,231C 87.5797,237.196 72.5797,243.196 57.5,249C 54.1309,249.293 52.2975,247.793 52,244.5C 57.3874,239.113 62.7208,233.779 68,228.5C 69.6247,224.668 70.6247,220.668 71,216.5C 74.1655,162.858 76.9989,109.191 79.5,55.5C 79.8333,52.8333 80.1667,50.1667 80.5,47.5C 82.3586,45.8076 84.3586,44.3076 86.5,43C 75.8333,42.3333 65.1667,42.3333 54.5,43C 51.7558,43.8035 49.0891,44.8035 46.5,46C 43.7839,49.2609 40.9506,52.4276 38,55.5C 31.2802,47.1138 24.9468,38.4472 19,29.5C 18.3333,28.5 18.3333,27.5 19,26.5C 23.2991,21.1951 28.4658,17.0284 34.5,14C 65.5,13.6667 96.5,13.3333 127.5,13C 133.453,11.1928 138.119,7.69285 141.5,2.5 Z"/></g>
<g><path style="opacity:0.031" fill="#1f201f" d="M 80.5,9.5 C 81.8333,10.1667 81.8333,10.1667 80.5,9.5 Z"/></g>
<g><path style="opacity:0.024" fill="#000000" d="M 175.5,77.5 C 175.5,77.8333 175.5,78.1667 175.5,78.5C 174.83,78.0187 174.83,77.6853 175.5,77.5 Z"/></g>
<g><path style="opacity:0.01" fill="#000000" d="M 110.5,139.5 C 110.897,138.475 111.563,138.308 112.5,139C 111.906,139.464 111.239,139.631 110.5,139.5 Z"/></g>
<g><path style="opacity:0.008" fill="#000000" d="M 110.5,140.5 C 112.337,140.639 112.67,141.306 111.5,142.5C 110.702,142.043 110.369,141.376 110.5,140.5 Z"/></g>
<g><path style="opacity:0.01" fill="#000000" d="M 108.5,201.5 C 108.897,200.475 109.563,200.308 110.5,201C 109.906,201.464 109.239,201.631 108.5,201.5 Z"/></g>
<g><path style="opacity:0.031" fill="#fefffe" d="M 113.5,227.5 C 114.833,228.167 114.833,228.167 113.5,227.5 Z"/></g>
<g><path style="opacity:0.008" fill="#fefffe" d="M 111.5,228.5 C 112.833,229.167 112.833,229.167 111.5,228.5 Z"/></g>
<g><path style="opacity:0.004" fill="#000000" d="M 67.5,247.5 C 68.525,247.897 68.6917,248.563 68,249.5C 67.5357,248.906 67.369,248.239 67.5,247.5 Z"/></g>
<g><path style="opacity:0.004" fill="#000000" d="M 65.5,248.5 C 66.8333,249.167 66.8333,249.167 65.5,248.5 Z"/></g>
</svg>
